<svg width="16" height="16" viewBox="0 0 16 16" fill="none" xmlns="http://www.w3.org/2000/svg">
<path d="M8.00004 2V14C5.66671 14 3.93304 10.9467 3.93304 10.9467H2.00004C1.82323 10.9467 1.65366 10.8764 1.52864 10.7514C1.40361 10.6264 1.33337 10.4568 1.33337 10.28V5.67C1.33337 5.49319 1.40361 5.32362 1.52864 5.1986C1.65366 5.07357 1.82323 5.00333 2.00004 5.00333H3.93304C3.93304 5.00333 5.66671 2 8.00004 2Z" stroke="#0F1B2A" stroke-width="1.33333" stroke-linejoin="round"/>
<path d="M10.6667 5C10.8751 5.18622 11.0633 5.39393 11.2281 5.61967C11.7319 6.31088 12.0023 7.14467 12.0001 8C12.0001 8.88467 11.7181 9.70233 11.2407 10.3633C11.0729 10.5956 10.8805 10.8091 10.6667 11" stroke="#0F1B2A" stroke-width="1.33333" stroke-linecap="round" stroke-linejoin="round"/>
<path d="M11.412 13.7287C13.3613 12.5653 14.6667 10.435 14.6667 7.99999C14.6667 5.60266 13.4013 3.50133 11.5023 2.32666" stroke="#0F1B2A" stroke-width="1.33333" stroke-linecap="round"/>
</svg>
