<svg width="24" height="22" viewBox="0 0 24 22" fill="none" xmlns="http://www.w3.org/2000/svg">
<g id="_&#235;&#160;&#136;&#236;&#157;&#180;&#236;&#150;&#180;_1" clip-path="url(#clip0_2927_2204)">
<g id="Seller_1">
<path id="_&#237;&#140;&#168;&#236;&#138;&#164;_5272" d="M21.9032 16.3916C21.8917 16.3583 21.8787 16.3266 21.8642 16.2948C20.5493 13.5748 18.1708 11.5163 15.2895 10.6048C17.9382 8.78907 18.6115 5.17056 16.7952 2.5242C14.9788 -0.123598 11.3591 -0.798188 8.71049 1.01757C6.06183 2.83333 5.38846 6.45185 7.20481 9.0982C7.60941 9.68901 8.12093 10.1989 8.71049 10.6034C5.82918 11.5163 3.45073 13.5733 2.1358 16.2933C2.11557 16.3352 2.09678 16.38 2.10979 16.367C1.37573 17.8866 0.995702 19.5507 1.00004 21.2365C1.00004 21.6568 1.34105 21.9963 1.76154 21.9977H22.2385C22.6589 21.9977 23 21.6568 23 21.2365C23.0043 19.5594 22.6286 17.9025 21.9032 16.3901V16.3916ZM12.2001 11.6579L13.1957 11.7344C17.6131 12.4119 20.9828 16.0391 21.3325 20.4926H2.4378C2.78749 16.0391 6.1572 12.4119 10.5745 11.7344L11.6655 11.6579M16.2894 5.81337C16.2894 8.18238 14.3676 10.1021 11.9978 10.1007C9.62805 10.1007 7.70767 8.17949 7.70911 5.81048C7.70911 3.44292 9.6295 1.52315 11.9993 1.52315C14.3676 1.52604 16.2866 3.44436 16.2894 5.81337Z" fill="#292A2B"/>
</g>
</g>
<defs>
<clipPath id="clip0_2927_2204">
<rect width="24" height="22" fill="white" transform="translate(0 -0.00195312)"/>
</clipPath>
</defs>
</svg>
